<?xml version="1.0" standalone="no"?>
<!DOCTYPE svg PUBLIC "-//W3C//DTD SVG 20010904//EN"
 "http://www.w3.org/TR/2001/REC-SVG-20010904/DTD/svg10.dtd">
<svg version="1.0" xmlns="http://www.w3.org/2000/svg"
 width="190.000000pt" height="190.000000pt" viewBox="0 0 190.000000 190.000000"
 preserveAspectRatio="xMidYMid meet">
<metadata>
Created by potrace 1.11, written by Peter Selinger 2001-2013
</metadata>
<g transform="translate(0.000000,190.000000) scale(0.100000,-0.100000)"
fill="#000000" stroke="none">
<path d="M1268 1835 c-9 -9 -157 -37 -223 -42 -94 -7 -96 -7 -130 -25 -16 -8
-55 -18 -85 -22 -30 -4 -69 -9 -87 -11 -18 -2 -45 -11 -61 -19 -28 -14 -80
-29 -142 -41 -56 -11 -108 -37 -120 -60 -9 -17 -32 -30 -84 -45 -88 -27 -110
-40 -140 -88 -18 -28 -36 -41 -76 -55 -28 -10 -66 -32 -83 -48 -52 -50 -46
-94 45 -309 6 -14 12 -29 13 -35 2 -5 12 -30 23 -55 11 -25 32 -74 45 -110 14
-36 31 -78 38 -95 7 -16 13 -35 14 -41 2 -6 10 -27 18 -45 9 -19 38 -90 66
-159 27 -69 55 -138 62 -155 7 -16 13 -32 14 -35 1 -3 5 -14 10 -25 5 -11 26
-63 47 -115 40 -100 62 -125 116 -136 32 -6 61 3 197 61 17 7 109 45 205 85
96 40 193 80 215 90 100 43 100 43 378 44 254 1 274 3 299 21 55 41 53 19 53
700 0 699 3 670 -65 705 -25 13 -58 18 -112 18 -63 0 -81 4 -106 22 -35 26
-92 28 -217 6 -11 -2 -28 0 -37 5 -19 10 -84 20 -90 14z"/>
</g>
</svg>
